<?xml version="1.0" encoding="utf-8"?>
<!-- Generator: Adobe Illustrator 25.0.0, SVG Export Plug-In . SVG Version: 6.00 Build 0)  -->
<svg version="1.1" id="Layer_1" xmlns="http://www.w3.org/2000/svg" xmlns:xlink="http://www.w3.org/1999/xlink" x="0px" y="0px"
	 viewBox="0 0 21.9 30.1" style="enable-background:new 0 0 21.9 30.1;" xml:space="preserve">
<style type="text/css">
	.st0{fill:none;stroke:#3A5E75;stroke-miterlimit:10;}
	.st1{fill:none;}
	.st2{opacity:0.2;fill:#3A5E75;}
	.st3{fill:#FFFFFF;}
	.st4{fill:#3A5E75;}
</style>
<path class="st0" d="M17.1,11.1c0-0.3,0.1-0.6,0.1-0.9c0-0.3,0-0.6-0.1-0.9l2-1.6c0.2-0.1,0.2-0.4,0.1-0.6l-1.9-3.3
	c-0.1-0.2-0.4-0.3-0.6-0.2l-2.4,1c-0.5-0.4-1-0.7-1.6-0.9L12.3,1c0-0.2-0.2-0.4-0.5-0.4H8C7.8,0.6,7.6,0.7,7.5,1L7.2,3.5
	C6.6,3.8,6,4.1,5.5,4.5l-2.4-1c-0.2-0.1-0.5,0-0.6,0.2L0.7,7C0.5,7.2,0.6,7.5,0.8,7.6l2,1.6c0,0.3-0.1,0.6-0.1,0.9s0,0.6,0.1,0.9
	l-2,1.6c-0.2,0.1-0.2,0.4-0.1,0.6l1.9,3.3c0.1,0.2,0.4,0.3,0.6,0.2l2.4-1c0.5,0.4,1,0.7,1.6,0.9l0.4,2.5c0.1,0.2,0.2,0.4,0.5,0.4
	h3.8c0.2,0,0.4-0.2,0.5-0.4l0.4-2.5c0.6-0.2,1.1-0.6,1.6-0.9l2.4,1c0.2,0.1,0.5,0,0.6-0.2l1.9-3.3c0.1-0.2,0.1-0.5-0.1-0.6
	L17.1,11.1z M9.9,13.8c-2,0-3.6-1.6-3.6-3.6s1.6-3.6,3.6-3.6s3.6,1.6,3.6,3.6S11.9,13.8,9.9,13.8z"/>
<g>
	<path class="st1" d="M-2.1-1.8h24v24h-24V-1.8z"/>
	<path class="st2" d="M17.1,11.1c0-0.3,0.1-0.6,0.1-0.9c0-0.3,0-0.6-0.1-0.9l2-1.6c0.2-0.1,0.2-0.4,0.1-0.6l-1.9-3.3
		c-0.1-0.2-0.4-0.3-0.6-0.2l-2.4,1c-0.5-0.4-1-0.7-1.6-0.9L12.3,1c0-0.2-0.2-0.4-0.5-0.4H8C7.8,0.6,7.6,0.7,7.5,1L7.2,3.5
		C6.6,3.8,6,4.1,5.5,4.5l-2.4-1c-0.2-0.1-0.5,0-0.6,0.2L0.7,7C0.5,7.2,0.6,7.5,0.8,7.6l2,1.6c0,0.3-0.1,0.6-0.1,0.9s0,0.6,0.1,0.9
		l-2,1.6c-0.2,0.1-0.2,0.4-0.1,0.6l1.9,3.3c0.1,0.2,0.4,0.3,0.6,0.2l2.4-1c0.5,0.4,1,0.7,1.6,0.9l0.4,2.5c0.1,0.2,0.2,0.4,0.5,0.4
		h3.8c0.2,0,0.4-0.2,0.5-0.4l0.4-2.5c0.6-0.2,1.1-0.6,1.6-0.9l2.4,1c0.2,0.1,0.5,0,0.6-0.2l1.9-3.3c0.1-0.2,0.1-0.5-0.1-0.6
		L17.1,11.1z M9.9,13.8c-2,0-3.6-1.6-3.6-3.6s1.6-3.6,3.6-3.6s3.6,1.6,3.6,3.6S11.9,13.8,9.9,13.8z"/>
</g>
<g>
	<ellipse transform="matrix(0.7068 -0.7074 0.7074 0.7068 -4.248 9.9794)" class="st3" cx="9.9" cy="10.1" rx="7.2" ry="7.1"/>
	<path class="st4" d="M14.7,15.9l-0.8-0.2l-0.2-0.3c1.2-0.9,2.1-2.2,2.5-3.7c0.8-3.5-1.3-7-4.8-7.9s-7,1.3-7.9,4.8s1.3,7,4.8,7.9
		c1.6,0.4,3.1,0.2,4.5-0.5l0.2,0.3L12.9,17l6.4,10.5l1.8-1.1L14.7,15.9z M8.9,14.5c-2.4-0.6-3.9-3-3.3-5.4s3-3.9,5.4-3.3
		s3.9,3,3.3,5.4S11.3,15.1,8.9,14.5z"/>
</g>
</svg>
